<svg xmlns="http://www.w3.org/2000/svg" width="88" height="64" viewBox="0 0 88 64" fill="none">
  <rect width="88" height="64" rx="4" fill="#f5f7fa"/>
  <rect x="14" y="6" width="60" height="52" rx="5" fill="#7c8a99"/><path d="M14 44l16-14 12 10 10-8 22 18v2a3 3 0 0 1-3 3H17a3 3 0 0 1-3-3z" fill="#9aa7b4"/><rect x="14" y="6" width="60" height="52" rx="5" fill="#000" opacity="0.4"/>
  <circle cx="44" cy="22" r="8" fill="#ffffff" stroke="none" stroke-width="0"/>
  <rect x="32" y="36" width="24" height="4" rx="2" fill="#ffffff"/>
  <rect x="28" y="44" width="32" height="2.5" rx="1.25" fill="#e2e8f0"/>
  <rect x="33" y="49" width="22" height="2.5" rx="1.25" fill="#e2e8f0"/>
  <path d="M64 12a10 10 0 0 1 0 16" stroke="#9aa7b4" stroke-width="2" fill="none" stroke-linecap="round"/>
  <path d="M64 28l-3-3 4-1z" fill="#9aa7b4"/>
</svg>
