<svg xmlns="http://www.w3.org/2000/svg" width="88" height="64" viewBox="0 0 88 64" fill="none">
  <rect width="88" height="64" rx="4" fill="#f5f7fa"/>
  
  <g>
    <rect x="6"  y="10" width="24" height="48" rx="3" fill="#ffffff" stroke="#cbd5e1" stroke-width="1.2"/>
    <rect x="32" y="6"  width="24" height="52" rx="3" fill="#ffffff" stroke="#4a90d9" stroke-width="1.6"/>
    <rect x="58" y="10" width="24" height="48" rx="3" fill="#ffffff" stroke="#cbd5e1" stroke-width="1.2"/>
  </g>
  <g fill="#8b97a3">
    <rect x="11" y="16" width="14" height="3" rx="1.5"/><rect x="11" y="22" width="9" height="4" rx="1"/>
    <rect x="37" y="12" width="14" height="3" rx="1.5"/><rect x="37" y="18" width="9" height="4" rx="1"/>
    <rect x="63" y="16" width="14" height="3" rx="1.5"/><rect x="63" y="22" width="9" height="4" rx="1"/>
  </g>
  <g fill="#d7dee4">
    <rect x="10" y="32" width="16" height="2" rx="1"/><rect x="10" y="37" width="16" height="2" rx="1"/>
    <rect x="36" y="28" width="16" height="2" rx="1"/><rect x="36" y="33" width="16" height="2" rx="1"/>
    <rect x="62" y="32" width="16" height="2" rx="1"/><rect x="62" y="37" width="16" height="2" rx="1"/>
  </g>
  <rect x="10" y="48" width="16" height="6" rx="2" fill="#c3ccd6"/>
  <rect x="36" y="46" width="16" height="6" rx="2" fill="#4a90d9"/>
  <rect x="62" y="48" width="16" height="6" rx="2" fill="#c3ccd6"/>
</svg>
