<svg xmlns="http://www.w3.org/2000/svg" viewBox="0 0 120 90" width="120" height="90" role="img" aria-label="Speech bubble layout">
  <rect width="120" height="90" fill="#f8f9fa"/>
  <g>
    <rect x="20" y="18" width="38" height="28" rx="7" fill="#eef1f4" stroke="#cfd6dd" stroke-width="2"/>
    <path d="M28 46 v8 l8 -8 z" fill="#eef1f4" stroke="#cfd6dd" stroke-width="2" stroke-linejoin="round"/>
    <rect x="62" y="18" width="38" height="28" rx="7" fill="#eef1f4" stroke="#cfd6dd" stroke-width="2"/>
    <path d="M70 46 v8 l8 -8 z" fill="#eef1f4" stroke="#cfd6dd" stroke-width="2" stroke-linejoin="round"/>
  </g>
  <g fill="#cdd4db">
    <rect x="26" y="26" width="26" height="3" rx="1.5"/>
    <rect x="26" y="33" width="18" height="3" rx="1.5"/>
    <rect x="68" y="26" width="26" height="3" rx="1.5"/>
    <rect x="68" y="33" width="18" height="3" rx="1.5"/>
  </g>
  <circle cx="30" cy="66" r="7" fill="#b9c2cb"/>
  <circle cx="72" cy="66" r="7" fill="#b9c2cb"/>
  <g fill="#dfe4e9">
    <rect x="41" y="62" width="20" height="3.5" rx="1.75"/>
    <rect x="41" y="69" width="14" height="3.5" rx="1.75"/>
    <rect x="83" y="62" width="20" height="3.5" rx="1.75"/>
    <rect x="83" y="69" width="14" height="3.5" rx="1.75"/>
  </g>
</svg>
