<svg xmlns="http://www.w3.org/2000/svg" viewBox="0 0 120 90" width="120" height="90" role="img" aria-label="Marquee wall layout">
  <rect width="120" height="90" fill="#f8f9fa"/>
  <g fill="#fff" stroke="#cfd6dd" stroke-width="2">
    <rect x="-6" y="30" width="34" height="30" rx="4"/>
    <rect x="34" y="30" width="34" height="30" rx="4"/>
    <rect x="74" y="30" width="34" height="30" rx="4"/>
    <rect x="114" y="30" width="34" height="30" rx="4"/>
  </g>
  <g fill="#dfe4e9">
    <rect x="40" y="37" width="22" height="3" rx="1.5"/>
    <rect x="40" y="44" width="16" height="3" rx="1.5"/>
    <rect x="80" y="37" width="22" height="3" rx="1.5"/>
    <rect x="80" y="44" width="16" height="3" rx="1.5"/>
  </g>
  <circle cx="44" cy="53" r="3" fill="#cfd6dd"/>
  <circle cx="84" cy="53" r="3" fill="#cfd6dd"/>
  <g stroke="#5b9bd5" stroke-width="2" stroke-linecap="round">
    <line x1="50" y1="72" x2="70" y2="72"/>
    <path d="M66 68 l5 4 -5 4" fill="none"/>
  </g>
</svg>
