<?xml version="1.0" encoding="utf-8"?>
<!-- Generator: Adobe Illustrator 28.2.0, SVG Export Plug-In . SVG Version: 6.00 Build 0)  -->
<svg version="1.1" id="Layer_1" xmlns="http://www.w3.org/2000/svg" xmlns:xlink="http://www.w3.org/1999/xlink" x="0px" y="0px"
	 viewBox="0 0 160 80" style="enable-background:new 0 0 160 80;" xml:space="preserve">
<style type="text/css">
	.st0{fill:#F6F7F7;}
	.st1{fill:#666666;}
	.st2{fill:#0073AA;}
	.st3{fill:#BBBBBB;}
</style>
<rect class="st0" width="160" height="80"/>
<g>
	<g>
		<path class="st1" d="M10,32.3h76c1.1,0,2,0.9,2,2v1c0,1.1-0.9,2-2,2H10c-1.1,0-2-0.9-2-2v-1C8,33.2,8.9,32.3,10,32.3z"/>
		<path class="st2" d="M96,29.3h42c1.1,0,2,0.9,2,2v7c0,1.1-0.9,2-2,2H96c-1.1,0-2-0.9-2-2v-7C94,30.2,94.9,29.3,96,29.3z"/>
	</g>
	<path class="st3" d="M10,42.7h140c1.1,0,2,0.9,2,2v1c0,1.1-0.9,2-2,2H10c-1.1,0-2-0.9-2-2v-1C8,43.6,8.9,42.7,10,42.7z"/>
	<path class="st3" d="M10,53h140c1.1,0,2,0.9,2,2v1c0,1.1-0.9,2-2,2H10c-1.1,0-2-0.9-2-2v-1C8,53.9,8.9,53,10,53z"/>
	<path class="st3" d="M10,63.4h76c1.1,0,2,0.9,2,2v1c0,1.1-0.9,2-2,2H10c-1.1,0-2-0.9-2-2v-1C8,64.3,8.9,63.4,10,63.4z"/>
	<path class="st1" d="M10,22h140c1.1,0,2,0.9,2,2v1c0,1.1-0.9,2-2,2H10c-1.1,0-2-0.9-2-2v-1C8,22.9,8.9,22,10,22z"/>
	<path class="st1" d="M10,11.6h140c1.1,0,2,0.9,2,2v1c0,1.1-0.9,2-2,2H10c-1.1,0-2-0.9-2-2v-1C8,12.5,8.9,11.6,10,11.6z"/>
</g>
</svg>
