<?xml version="1.0" encoding="utf-8"?>
<!-- Generator: Adobe Illustrator 28.2.0, SVG Export Plug-In . SVG Version: 6.00 Build 0)  -->
<svg version="1.1" id="Layer_1" xmlns="http://www.w3.org/2000/svg" xmlns:xlink="http://www.w3.org/1999/xlink" x="0px" y="0px"
	 viewBox="0 0 160 80" style="enable-background:new 0 0 160 80;" xml:space="preserve">
<style type="text/css">
	.st0{fill:#F6F7F7;}
	.st1{fill:#666666;}
	.st2{fill:#BBBBBB;}
	.st3{fill:#0073AA;}
</style>
<rect class="st0" width="160" height="80"/>
<g>
	<path class="st1" d="M9.9,21h140c1.1,0,2,0.9,2,2v1c0,1.1-0.9,2-2,2H9.9c-1.1,0-2-0.9-2-2v-1C7.9,21.9,8.8,21,9.9,21z"/>
	<g>
		<path class="st1" d="M9.9,31h96c1.1,0,2,0.9,2,2v1c0,1.1-0.9,2-2,2h-96c-1.1,0-2-0.9-2-2v-1C7.9,31.9,8.8,31,9.9,31z"/>
		<path class="st2" d="M113.9,31h36c1.1,0,2,0.9,2,2v1c0,1.1-0.9,2-2,2h-36c-1.1,0-2-0.9-2-2v-1C111.9,31.9,112.8,31,113.9,31z"/>
	</g>
	<path class="st2" d="M9.9,51h140c1.1,0,2,0.9,2,2v1c0,1.1-0.9,2-2,2H9.9c-1.1,0-2-0.9-2-2v-1C7.9,51.9,8.8,51,9.9,51z"/>
	<g>
		<path class="st2" d="M9.9,60.9h76c1.1,0,2,0.9,2,2v1c0,1.1-0.9,2-2,2h-76c-1.1,0-2-0.9-2-2v-1C7.9,61.8,8.8,60.9,9.9,60.9z"/>
		<path class="st3" d="M95.9,57.9h36c1.1,0,2,0.9,2,2v7c0,1.1-0.9,2-2,2h-36c-1.1,0-2-0.9-2-2v-7C93.9,58.8,94.8,57.9,95.9,57.9z"/>
	</g>
	<path class="st2" d="M9.9,41h140c1.1,0,2,0.9,2,2v1c0,1.1-0.9,2-2,2H9.9c-1.1,0-2-0.9-2-2v-1C7.9,41.9,8.8,41,9.9,41z"/>
	<path class="st1" d="M9.9,11.1h140c1.1,0,2,0.9,2,2v1c0,1.1-0.9,2-2,2H9.9c-1.1,0-2-0.9-2-2v-1C7.9,11.9,8.8,11.1,9.9,11.1z"/>
</g>
</svg>
