<?xml version="1.0" encoding="utf-8"?>
<!-- Generator: Adobe Illustrator 28.2.0, SVG Export Plug-In . SVG Version: 6.00 Build 0)  -->
<svg version="1.1" id="Layer_1" xmlns="http://www.w3.org/2000/svg" xmlns:xlink="http://www.w3.org/1999/xlink" x="0px" y="0px"
	 viewBox="0 0 160 80" style="enable-background:new 0 0 160 80;" xml:space="preserve">
<style type="text/css">
	.st0{fill:#F6F7F7;}
	.st1{fill:#0073AA;}
	.st2{fill:#666666;}
	.st3{fill:#BBBBBB;}
</style>
<rect class="st0" width="160" height="80"/>
<g>
	<path class="st1" d="M70,29.4h30c1.1,0,2,0.9,2,2v7c0,1.1-0.9,2-2,2H70c-1.1,0-2-0.9-2-2v-7C68,30.3,68.9,29.4,70,29.4z"/>
	<g>
		<path class="st2" d="M10,32.4h52c1.1,0,2,0.9,2,2v1c0,1.1-0.9,2-2,2H10c-1.1,0-2-0.9-2-2v-1C8,33.3,8.9,32.4,10,32.4z"/>
		<path class="st3" d="M108,32.4h42c1.1,0,2,0.9,2,2v1c0,1.1-0.9,2-2,2h-42c-1.1,0-2-0.9-2-2v-1C106,33.3,106.9,32.4,108,32.4z"/>
	</g>
	<path class="st3" d="M10,42.6h140c1.1,0,2,0.9,2,2v1c0,1.1-0.9,2-2,2H10c-1.1,0-2-0.9-2-2v-1C8,43.5,8.9,42.6,10,42.6z"/>
	<path class="st3" d="M10,52.7h140c1.1,0,2,0.9,2,2v1c0,1.1-0.9,2-2,2H10c-1.1,0-2-0.9-2-2v-1C8,53.6,8.9,52.7,10,52.7z"/>
	<path class="st3" d="M10,62.8h96c1.1,0,2,0.9,2,2v1c0,1.1-0.9,2-2,2H10c-1.1,0-2-0.9-2-2v-1C8,63.7,8.9,62.8,10,62.8z"/>
	<path class="st2" d="M10,22.3h140c1.1,0,2,0.9,2,2v1c0,1.1-0.9,2-2,2H10c-1.1,0-2-0.9-2-2v-1C8,23.2,8.9,22.3,10,22.3z"/>
	<path class="st2" d="M10,12.2h140c1.1,0,2,0.9,2,2v1c0,1.1-0.9,2-2,2H10c-1.1,0-2-0.9-2-2v-1C8,13.1,8.9,12.2,10,12.2z"/>
</g>
</svg>
