<svg xmlns="http://www.w3.org/2000/svg" viewBox="0 0 120 90" width="120" height="90" role="img" aria-label="Filmstrip"><rect width="120" height="90" fill="#f8f9fa"/><rect x="28" y="16" width="64" height="38" rx="2" fill="#14171a"/><g fill="#f3f4f6"><circle cx="36" cy="21" r="2"/><circle cx="46" cy="21" r="2"/><circle cx="56" cy="21" r="2"/><circle cx="66" cy="21" r="2"/><circle cx="76" cy="21" r="2"/><circle cx="86" cy="21" r="2"/><circle cx="36" cy="49" r="2"/><circle cx="46" cy="49" r="2"/><circle cx="56" cy="49" r="2"/><circle cx="66" cy="49" r="2"/><circle cx="76" cy="49" r="2"/><circle cx="86" cy="49" r="2"/></g><rect x="34" y="26" width="52" height="18" rx="1" fill="#cfd6dd"/><rect x="34" y="60" width="44" height="4" rx="2" fill="#dfe4e9"/><rect x="34" y="68" width="32" height="4" rx="2" fill="#dfe4e9"/></svg>
