<svg xmlns="http://www.w3.org/2000/svg" width="120" height="40" viewBox="0 0 120 40" fill="none">
  <rect width="120" height="40" rx="4" fill="#f5f7fa"/>
  <path transform="translate(8 4) scale(0.85)" d="M16 28s-10-6.2-13.3-11.6C.9 13 3 8 8 8c3 0 4.5 2 8 4 3.5-2 5-4 8-4 5 0 7.1 5 5.3 8.4C26 21.8 16 28 16 28z" fill="#e8506e"/><path transform="translate(36 4) scale(0.85)" d="M16 28s-10-6.2-13.3-11.6C.9 13 3 8 8 8c3 0 4.5 2 8 4 3.5-2 5-4 8-4 5 0 7.1 5 5.3 8.4C26 21.8 16 28 16 28z" fill="#e8506e"/><path transform="translate(64 4) scale(0.85)" d="M16 28s-10-6.2-13.3-11.6C.9 13 3 8 8 8c3 0 4.5 2 8 4 3.5-2 5-4 8-4 5 0 7.1 5 5.3 8.4C26 21.8 16 28 16 28z" fill="#e8506e"/><path transform="translate(92 4) scale(0.85)" d="M16 28s-10-6.2-13.3-11.6C.9 13 3 8 8 8c3 0 4.5 2 8 4 3.5-2 5-4 8-4 5 0 7.1 5 5.3 8.4C26 21.8 16 28 16 28z" fill="#d6dbe1"/>
</svg>
