<svg xmlns="http://www.w3.org/2000/svg" width="120" height="40" viewBox="0 0 120 40" fill="none">
  <rect width="120" height="40" rx="4" fill="#f5f7fa"/>
  <path transform="translate(8 4) scale(0.85)" d="M16 2l4.2 8.5 9.4 1.4-6.8 6.6 1.6 9.4L16 23.5 7.6 27.9l1.6-9.4L2.4 11.9l9.4-1.4z" fill="#f5a623"/><path transform="translate(36 4) scale(0.85)" d="M16 2l4.2 8.5 9.4 1.4-6.8 6.6 1.6 9.4L16 23.5 7.6 27.9l1.6-9.4L2.4 11.9l9.4-1.4z" fill="#f5a623"/><path transform="translate(64 4) scale(0.85)" d="M16 2l4.2 8.5 9.4 1.4-6.8 6.6 1.6 9.4L16 23.5 7.6 27.9l1.6-9.4L2.4 11.9l9.4-1.4z" fill="#f5a623"/><path transform="translate(92 4) scale(0.85)" d="M16 2l4.2 8.5 9.4 1.4-6.8 6.6 1.6 9.4L16 23.5 7.6 27.9l1.6-9.4L2.4 11.9l9.4-1.4z" fill="#d6dbe1"/>
</svg>
