<svg xmlns="http://www.w3.org/2000/svg" viewBox="0 0 120 90" width="120" height="90" role="img" aria-label="Cards layout">
  <rect width="120" height="90" fill="#f8f9fa"/>
  <g fill="#fff" stroke="#cfd6dd" stroke-width="2">
    <rect x="13" y="20" width="29" height="50" rx="4"/>
    <rect x="46" y="20" width="29" height="50" rx="4"/>
    <rect x="79" y="20" width="29" height="50" rx="4"/>
  </g>
  <g fill="#e9edf1">
    <rect x="16" y="23" width="23" height="28" rx="2"/>
    <rect x="49" y="23" width="23" height="28" rx="2"/>
    <rect x="82" y="23" width="23" height="28" rx="2"/>
  </g>
  <g fill="#dfe4e9">
    <rect x="16" y="56" width="23" height="3" rx="1.5"/>
    <rect x="16" y="62" width="14" height="3" rx="1.5"/>
    <rect x="49" y="56" width="23" height="3" rx="1.5"/>
    <rect x="49" y="62" width="14" height="3" rx="1.5"/>
    <rect x="82" y="56" width="23" height="3" rx="1.5"/>
    <rect x="82" y="62" width="14" height="3" rx="1.5"/>
  </g>
</svg>
