<svg xmlns="http://www.w3.org/2000/svg" viewBox="0 0 120 90" width="120" height="90" role="img" aria-label="Honeycomb layout">
  <rect width="120" height="90" fill="#f8f9fa"/>
  <g fill="#fff" stroke="#cfd6dd" stroke-width="2">
    <polygon points="34,16 46,23 46,37 34,44 22,37 22,23"/>
    <polygon points="62,16 74,23 74,37 62,44 50,37 50,23"/>
    <polygon points="90,16 102,23 102,37 90,44 78,37 78,23"/>
    <polygon points="48,44 60,51 60,65 48,72 36,65 36,51"/>
    <polygon points="76,44 88,51 88,65 76,72 64,65 64,51"/>
  </g>
  <g fill="#e0e5ea">
    <polygon points="34,21 42,25.5 42,34.5 34,39 26,34.5 26,25.5"/>
    <polygon points="62,21 70,25.5 70,34.5 62,39 54,34.5 54,25.5"/>
    <polygon points="90,21 98,25.5 98,34.5 90,39 82,34.5 82,25.5"/>
    <polygon points="48,49 56,53.5 56,62.5 48,67 40,62.5 40,53.5"/>
    <polygon points="76,49 84,53.5 84,62.5 76,67 68,62.5 68,53.5"/>
  </g>
</svg>
