<svg xmlns="http://www.w3.org/2000/svg" viewBox="0 0 120 96" role="img" aria-label="Bezier In-Out"><path d="M 13.0 84.0 L 14.6 84.0 L 16.1 83.8 L 17.7 83.6 L 19.3 83.4 L 20.8 83.0 L 22.4 82.6 L 24.0 82.0 L 25.5 81.4 L 27.1 80.8 L 28.7 80.0 L 30.2 79.2 L 31.8 78.2 L 33.4 77.2 L 34.9 76.2 L 36.5 75.0 L 38.1 73.8 L 39.6 72.4 L 41.2 71.0 L 42.8 69.6 L 44.3 68.0 L 45.9 66.4 L 47.5 64.6 L 49.0 62.8 L 50.6 61.0 L 52.2 59.0 L 53.7 57.0 L 55.3 54.8 L 56.9 52.6 L 58.4 50.4 L 60.0 48.0 L 61.6 45.6 L 63.1 43.4 L 64.7 41.2 L 66.3 39.0 L 67.8 37.0 L 69.4 35.0 L 71.0 33.2 L 72.5 31.4 L 74.1 29.6 L 75.7 28.0 L 77.2 26.4 L 78.8 25.0 L 80.4 23.6 L 81.9 22.2 L 83.5 21.0 L 85.1 19.8 L 86.6 18.8 L 88.2 17.8 L 89.8 16.8 L 91.3 16.0 L 92.9 15.2 L 94.5 14.6 L 96.0 14.0 L 97.6 13.4 L 99.2 13.0 L 100.7 12.6 L 102.3 12.4 L 103.9 12.2 L 105.4 12.0 L 107.0 12.0" fill="none" stroke="#2f74e6" stroke-width="2.6" stroke-linecap="round" stroke-linejoin="round"/></svg>
