<svg xmlns="http://www.w3.org/2000/svg" viewBox="0 0 120 96" role="img" aria-label="Bezier In"><path d="M 13.0 84.0 L 14.6 84.0 L 16.1 83.9 L 17.7 83.8 L 19.3 83.7 L 20.8 83.5 L 22.4 83.3 L 24.0 83.0 L 25.5 82.7 L 27.1 82.4 L 28.7 82.0 L 30.2 81.6 L 31.8 81.1 L 33.4 80.6 L 34.9 80.1 L 36.5 79.5 L 38.1 78.9 L 39.6 78.2 L 41.2 77.5 L 42.8 76.8 L 44.3 76.0 L 45.9 75.2 L 47.5 74.3 L 49.0 73.4 L 50.6 72.5 L 52.2 71.5 L 53.7 70.5 L 55.3 69.4 L 56.9 68.3 L 58.4 67.2 L 60.0 66.0 L 61.6 64.8 L 63.1 63.5 L 64.7 62.2 L 66.3 60.9 L 67.8 59.5 L 69.4 58.1 L 71.0 56.6 L 72.5 55.1 L 74.1 53.6 L 75.7 52.0 L 77.2 50.4 L 78.8 48.7 L 80.4 47.0 L 81.9 45.3 L 83.5 43.5 L 85.1 41.7 L 86.6 39.8 L 88.2 37.9 L 89.8 36.0 L 91.3 34.0 L 92.9 32.0 L 94.5 29.9 L 96.0 27.8 L 97.6 25.7 L 99.2 23.5 L 100.7 21.3 L 102.3 19.0 L 103.9 16.7 L 105.4 14.4 L 107.0 12.0" fill="none" stroke="#2f74e6" stroke-width="2.6" stroke-linecap="round" stroke-linejoin="round"/></svg>
