<svg xmlns="http://www.w3.org/2000/svg" viewBox="0 0 120 96" role="img" aria-label="Bezier Out-In"><path d="M 13.0 84.0 L 14.6 81.6 L 16.1 79.4 L 17.7 77.2 L 19.3 75.0 L 20.8 73.0 L 22.4 71.0 L 24.0 69.2 L 25.5 67.4 L 27.1 65.6 L 28.7 64.0 L 30.2 62.4 L 31.8 61.0 L 33.4 59.6 L 34.9 58.2 L 36.5 57.0 L 38.1 55.8 L 39.6 54.8 L 41.2 53.8 L 42.8 52.8 L 44.3 52.0 L 45.9 51.2 L 47.5 50.6 L 49.0 50.0 L 50.6 49.4 L 52.2 49.0 L 53.7 48.6 L 55.3 48.4 L 56.9 48.2 L 58.4 48.0 L 60.0 48.0 L 61.6 48.0 L 63.1 47.8 L 64.7 47.6 L 66.3 47.4 L 67.8 47.0 L 69.4 46.6 L 71.0 46.0 L 72.5 45.4 L 74.1 44.8 L 75.7 44.0 L 77.2 43.2 L 78.8 42.2 L 80.4 41.2 L 81.9 40.2 L 83.5 39.0 L 85.1 37.8 L 86.6 36.4 L 88.2 35.0 L 89.8 33.6 L 91.3 32.0 L 92.9 30.4 L 94.5 28.6 L 96.0 26.8 L 97.6 25.0 L 99.2 23.0 L 100.7 21.0 L 102.3 18.8 L 103.9 16.6 L 105.4 14.4 L 107.0 12.0" fill="none" stroke="#2f74e6" stroke-width="2.6" stroke-linecap="round" stroke-linejoin="round"/></svg>
