<svg xmlns="http://www.w3.org/2000/svg" viewBox="0 0 120 96" role="img" aria-label="Bezier Out"><path d="M 13.0 84.0 L 14.6 81.6 L 16.1 79.3 L 17.7 77.0 L 19.3 74.7 L 20.8 72.5 L 22.4 70.3 L 24.0 68.2 L 25.5 66.1 L 27.1 64.0 L 28.7 62.0 L 30.2 60.0 L 31.8 58.1 L 33.4 56.2 L 34.9 54.3 L 36.5 52.5 L 38.1 50.7 L 39.6 49.0 L 41.2 47.3 L 42.8 45.6 L 44.3 44.0 L 45.9 42.4 L 47.5 40.9 L 49.0 39.4 L 50.6 37.9 L 52.2 36.5 L 53.7 35.1 L 55.3 33.8 L 56.9 32.5 L 58.4 31.2 L 60.0 30.0 L 61.6 28.8 L 63.1 27.7 L 64.7 26.6 L 66.3 25.5 L 67.8 24.5 L 69.4 23.5 L 71.0 22.6 L 72.5 21.7 L 74.1 20.8 L 75.7 20.0 L 77.2 19.2 L 78.8 18.5 L 80.4 17.8 L 81.9 17.1 L 83.5 16.5 L 85.1 15.9 L 86.6 15.4 L 88.2 14.9 L 89.8 14.4 L 91.3 14.0 L 92.9 13.6 L 94.5 13.3 L 96.0 13.0 L 97.6 12.7 L 99.2 12.5 L 100.7 12.3 L 102.3 12.2 L 103.9 12.1 L 105.4 12.0 L 107.0 12.0" fill="none" stroke="#2f74e6" stroke-width="2.6" stroke-linecap="round" stroke-linejoin="round"/></svg>
