<svg xmlns="http://www.w3.org/2000/svg" viewBox="0 0 120 96" role="img" aria-label="In Back"><path d="M 13.0 77.5 L 14.6 77.5 L 16.1 77.6 L 17.7 77.7 L 19.3 77.9 L 20.8 78.1 L 22.4 78.4 L 24.0 78.7 L 25.5 79.0 L 27.1 79.4 L 28.7 79.7 L 30.2 80.1 L 31.8 80.5 L 33.4 80.9 L 34.9 81.3 L 36.5 81.7 L 38.1 82.0 L 39.6 82.4 L 41.2 82.7 L 42.8 83.0 L 44.3 83.3 L 45.9 83.5 L 47.5 83.7 L 49.0 83.9 L 50.6 84.0 L 52.2 84.0 L 53.7 84.0 L 55.3 83.9 L 56.9 83.7 L 58.4 83.5 L 60.0 83.2 L 61.6 82.8 L 63.1 82.3 L 64.7 81.7 L 66.3 81.0 L 67.8 80.3 L 69.4 79.4 L 71.0 78.3 L 72.5 77.2 L 74.1 75.9 L 75.7 74.6 L 77.2 73.0 L 78.8 71.4 L 80.4 69.6 L 81.9 67.6 L 83.5 65.5 L 85.1 63.2 L 86.6 60.8 L 88.2 58.2 L 89.8 55.4 L 91.3 52.5 L 92.9 49.3 L 94.5 46.0 L 96.0 42.5 L 97.6 38.8 L 99.2 34.8 L 100.7 30.7 L 102.3 26.4 L 103.9 21.8 L 105.4 17.0 L 107.0 12.0" fill="none" stroke="#2f74e6" stroke-width="2.6" stroke-linecap="round" stroke-linejoin="round"/></svg>
