<svg xmlns="http://www.w3.org/2000/svg" viewBox="0 0 120 96" role="img" aria-label="In Bounce"><path d="M 13.0 84.0 L 14.0 83.5 L 15.1 83.2 L 16.1 83.0 L 17.2 82.9 L 18.2 82.9 L 19.3 83.1 L 20.3 83.4 L 21.4 83.9 L 22.4 83.1 L 23.4 82.2 L 24.5 81.4 L 25.5 80.8 L 26.6 80.3 L 27.6 79.9 L 28.7 79.6 L 29.7 79.5 L 30.8 79.5 L 31.8 79.7 L 32.8 80.0 L 33.9 80.4 L 34.9 80.9 L 36.0 81.6 L 37.0 82.5 L 38.1 83.4 L 39.1 83.0 L 40.2 80.9 L 41.2 79.0 L 42.2 77.2 L 43.3 75.5 L 44.3 74.0 L 45.4 72.6 L 46.4 71.3 L 47.5 70.2 L 48.5 69.2 L 49.6 68.3 L 50.6 67.6 L 51.6 67.0 L 52.7 66.6 L 53.7 66.2 L 54.8 66.1 L 55.8 66.0 L 56.9 66.1 L 57.9 66.3 L 59.0 66.6 L 60.0 67.1 L 61.0 67.7 L 62.1 68.5 L 63.1 69.4 L 64.2 70.4 L 65.2 71.6 L 66.3 72.8 L 67.3 74.3 L 68.4 75.8 L 69.4 77.5 L 70.4 79.3 L 71.5 81.3 L 72.5 83.4 L 73.6 80.8 L 74.6 76.6 L 75.7 72.5 L 76.7 68.5 L 77.8 64.7 L 78.8 61.0 L 79.8 57.4 L 80.9 54.0 L 81.9 50.7 L 83.0 47.6 L 84.0 44.5 L 85.1 41.6 L 86.1 38.9 L 87.2 36.3 L 88.2 33.8 L 89.2 31.4 L 90.3 29.2 L 91.3 27.1 L 92.4 25.2 L 93.4 23.4 L 94.5 21.7 L 95.5 20.1 L 96.6 18.7 L 97.6 17.4 L 98.6 16.3 L 99.7 15.3 L 100.7 14.4 L 101.8 13.7 L 102.8 13.1 L 103.9 12.6 L 104.9 12.3 L 106.0 12.1 L 107.0 12.0" fill="none" stroke="#2f74e6" stroke-width="2.6" stroke-linecap="round" stroke-linejoin="round"/></svg>
