<svg xmlns="http://www.w3.org/2000/svg" viewBox="0 0 120 96" role="img" aria-label="In Circ"><path d="M 13.0 84.0 L 14.6 84.0 L 16.1 84.0 L 17.7 83.9 L 19.3 83.8 L 20.8 83.7 L 22.4 83.6 L 24.0 83.5 L 25.5 83.4 L 27.1 83.2 L 28.7 83.0 L 30.2 82.8 L 31.8 82.5 L 33.4 82.3 L 34.9 82.0 L 36.5 81.7 L 38.1 81.4 L 39.6 81.0 L 41.2 80.7 L 42.8 80.3 L 44.3 79.9 L 45.9 79.4 L 47.5 79.0 L 49.0 78.5 L 50.6 78.0 L 52.2 77.5 L 53.7 76.9 L 55.3 76.3 L 56.9 75.7 L 58.4 75.0 L 60.0 74.4 L 61.6 73.6 L 63.1 72.9 L 64.7 72.1 L 66.3 71.3 L 67.8 70.5 L 69.4 69.6 L 71.0 68.7 L 72.5 67.7 L 74.1 66.7 L 75.7 65.7 L 77.2 64.6 L 78.8 63.4 L 80.4 62.2 L 81.9 61.0 L 83.5 59.6 L 85.1 58.2 L 86.6 56.8 L 88.2 55.2 L 89.8 53.6 L 91.3 51.8 L 92.9 49.9 L 94.5 47.9 L 96.0 45.7 L 97.6 43.4 L 99.2 40.8 L 100.7 37.8 L 102.3 34.5 L 103.9 30.4 L 105.4 25.1 L 107.0 12.0" fill="none" stroke="#2f74e6" stroke-width="2.6" stroke-linecap="round" stroke-linejoin="round"/></svg>
