<svg xmlns="http://www.w3.org/2000/svg" viewBox="0 0 120 96" role="img" aria-label="In Expo"><path d="M 13.0 84.0 L 14.6 83.9 L 16.1 83.9 L 17.7 83.9 L 19.3 83.9 L 20.8 83.9 L 22.4 83.9 L 24.0 83.8 L 25.5 83.8 L 27.1 83.8 L 28.7 83.8 L 30.2 83.7 L 31.8 83.7 L 33.4 83.7 L 34.9 83.6 L 36.5 83.6 L 38.1 83.6 L 39.6 83.5 L 41.2 83.4 L 42.8 83.4 L 44.3 83.3 L 45.9 83.2 L 47.5 83.1 L 49.0 83.0 L 50.6 82.9 L 52.2 82.7 L 53.7 82.6 L 55.3 82.4 L 56.9 82.2 L 58.4 82.0 L 60.0 81.8 L 61.6 81.5 L 63.1 81.2 L 64.7 80.8 L 66.3 80.4 L 67.8 80.0 L 69.4 79.5 L 71.0 78.9 L 72.5 78.3 L 74.1 77.6 L 75.7 76.9 L 77.2 76.0 L 78.8 75.0 L 80.4 73.9 L 81.9 72.7 L 83.5 71.3 L 85.1 69.7 L 86.6 68.0 L 88.2 66.0 L 89.8 63.8 L 91.3 61.3 L 92.9 58.5 L 94.5 55.4 L 96.0 51.9 L 97.6 48.0 L 99.2 43.6 L 100.7 38.6 L 102.3 33.1 L 103.9 26.9 L 105.4 19.9 L 107.0 12.0" fill="none" stroke="#2f74e6" stroke-width="2.6" stroke-linecap="round" stroke-linejoin="round"/></svg>
