<svg xmlns="http://www.w3.org/2000/svg" viewBox="0 0 120 96" role="img" aria-label="In Elastic"><path d="M 13.0 64.4 L 14.0 64.5 L 15.1 64.4 L 16.1 64.4 L 17.2 64.4 L 18.2 64.4 L 19.3 64.4 L 20.3 64.4 L 21.4 64.4 L 22.4 64.3 L 23.4 64.3 L 24.5 64.3 L 25.5 64.3 L 26.6 64.4 L 27.6 64.4 L 28.7 64.4 L 29.7 64.5 L 30.8 64.5 L 31.8 64.5 L 32.8 64.6 L 33.9 64.6 L 34.9 64.7 L 36.0 64.7 L 37.0 64.7 L 38.1 64.7 L 39.1 64.7 L 40.2 64.7 L 41.2 64.6 L 42.2 64.6 L 43.3 64.5 L 44.3 64.4 L 45.4 64.2 L 46.4 64.1 L 47.5 63.9 L 48.5 63.8 L 49.6 63.7 L 50.6 63.6 L 51.6 63.6 L 52.7 63.6 L 53.7 63.7 L 54.8 63.8 L 55.8 64.0 L 56.9 64.2 L 57.9 64.5 L 59.0 64.9 L 60.0 65.3 L 61.0 65.7 L 62.1 66.0 L 63.1 66.4 L 64.2 66.7 L 65.2 66.8 L 66.3 66.9 L 67.3 66.8 L 68.4 66.5 L 69.4 66.1 L 70.4 65.5 L 71.5 64.7 L 72.5 63.7 L 73.6 62.7 L 74.6 61.6 L 75.7 60.5 L 76.7 59.4 L 77.8 58.5 L 78.8 57.9 L 79.8 57.6 L 80.9 57.6 L 81.9 58.1 L 83.0 59.1 L 84.0 60.6 L 85.1 62.6 L 86.1 65.1 L 87.2 67.9 L 88.2 71.0 L 89.2 74.2 L 90.3 77.2 L 91.3 80.0 L 92.4 82.2 L 93.4 83.6 L 94.5 84.0 L 95.5 83.2 L 96.6 81.1 L 97.6 77.6 L 98.6 72.6 L 99.7 66.2 L 100.7 58.7 L 101.8 50.3 L 102.8 41.4 L 103.9 32.6 L 104.9 24.3 L 106.0 17.2 L 107.0 12.0" fill="none" stroke="#2f74e6" stroke-width="2.6" stroke-linecap="round" stroke-linejoin="round"/></svg>
