<svg xmlns="http://www.w3.org/2000/svg" viewBox="0 0 120 96" role="img" aria-label="In-Out Expo"><path d="M 13.0 84.0 L 14.6 84.0 L 16.1 83.9 L 17.7 83.9 L 19.3 83.9 L 20.8 83.9 L 22.4 83.9 L 24.0 83.8 L 25.5 83.8 L 27.1 83.7 L 28.7 83.6 L 30.2 83.6 L 31.8 83.4 L 33.4 83.3 L 34.9 83.1 L 36.5 82.9 L 38.1 82.6 L 39.6 82.2 L 41.2 81.8 L 42.8 81.2 L 44.3 80.4 L 45.9 79.5 L 47.5 78.3 L 49.0 76.9 L 50.6 75.0 L 52.2 72.7 L 53.7 69.7 L 55.3 66.0 L 56.9 61.3 L 58.4 55.4 L 60.0 48.0 L 61.6 40.6 L 63.1 34.7 L 64.7 30.0 L 66.3 26.3 L 67.8 23.3 L 69.4 21.0 L 71.0 19.1 L 72.5 17.7 L 74.1 16.5 L 75.7 15.6 L 77.2 14.8 L 78.8 14.3 L 80.4 13.8 L 81.9 13.4 L 83.5 13.1 L 85.1 12.9 L 86.6 12.7 L 88.2 12.6 L 89.8 12.4 L 91.3 12.4 L 92.9 12.3 L 94.5 12.2 L 96.0 12.2 L 97.6 12.1 L 99.2 12.1 L 100.7 12.1 L 102.3 12.1 L 103.9 12.1 L 105.4 12.0 L 107.0 12.0" fill="none" stroke="#2f74e6" stroke-width="2.6" stroke-linecap="round" stroke-linejoin="round"/></svg>
