<svg xmlns="http://www.w3.org/2000/svg" viewBox="0 0 120 96" role="img" aria-label="In-Out Bounce"><path d="M 13.0 84.0 L 14.0 83.6 L 15.1 83.4 L 16.1 83.6 L 17.2 84.0 L 18.2 83.1 L 19.3 82.4 L 20.3 81.9 L 21.4 81.8 L 22.4 81.8 L 23.4 82.2 L 24.5 82.8 L 25.5 83.7 L 26.6 82.5 L 27.6 80.6 L 28.7 79.0 L 29.7 77.7 L 30.8 76.6 L 31.8 75.8 L 32.8 75.3 L 33.9 75.0 L 34.9 75.0 L 36.0 75.3 L 37.0 75.9 L 38.1 76.7 L 39.1 77.8 L 40.2 79.1 L 41.2 80.8 L 42.2 82.7 L 43.3 82.4 L 44.3 78.3 L 45.4 74.4 L 46.4 70.7 L 47.5 67.4 L 48.5 64.3 L 49.6 61.4 L 50.6 58.9 L 51.6 56.6 L 52.7 54.6 L 53.7 52.8 L 54.8 51.4 L 55.8 50.2 L 56.9 49.2 L 57.9 48.5 L 59.0 48.1 L 60.0 48.0 L 61.0 47.9 L 62.1 47.5 L 63.1 46.8 L 64.2 45.8 L 65.2 44.6 L 66.3 43.2 L 67.3 41.4 L 68.4 39.4 L 69.4 37.1 L 70.4 34.6 L 71.5 31.7 L 72.5 28.6 L 73.6 25.3 L 74.6 21.6 L 75.7 17.8 L 76.7 13.6 L 77.8 13.3 L 78.8 15.2 L 79.8 16.9 L 80.9 18.2 L 81.9 19.3 L 83.0 20.1 L 84.0 20.7 L 85.1 21.0 L 86.1 21.0 L 87.2 20.7 L 88.2 20.2 L 89.2 19.4 L 90.3 18.3 L 91.3 17.0 L 92.4 15.4 L 93.4 13.5 L 94.5 12.3 L 95.5 13.2 L 96.6 13.8 L 97.6 14.2 L 98.6 14.2 L 99.7 14.1 L 100.7 13.6 L 101.8 12.9 L 102.8 12.0 L 103.9 12.4 L 104.9 12.6 L 106.0 12.4 L 107.0 12.0" fill="none" stroke="#2f74e6" stroke-width="2.6" stroke-linecap="round" stroke-linejoin="round"/></svg>
