<svg xmlns="http://www.w3.org/2000/svg" viewBox="0 0 120 96" role="img" aria-label="In-Out Sine"><path d="M 13.0 84.0 L 14.6 84.0 L 16.1 83.8 L 17.7 83.6 L 19.3 83.2 L 20.8 82.8 L 22.4 82.2 L 24.0 81.6 L 25.5 80.9 L 27.1 80.1 L 28.7 79.2 L 30.2 78.2 L 31.8 77.1 L 33.4 76.0 L 34.9 74.8 L 36.5 73.5 L 38.1 72.1 L 39.6 70.7 L 41.2 69.2 L 42.8 67.6 L 44.3 66.0 L 45.9 64.3 L 47.5 62.6 L 49.0 60.9 L 50.6 59.1 L 52.2 57.3 L 53.7 55.5 L 55.3 53.6 L 56.9 51.8 L 58.4 49.9 L 60.0 48.0 L 61.6 46.1 L 63.1 44.2 L 64.7 42.4 L 66.3 40.5 L 67.8 38.7 L 69.4 36.9 L 71.0 35.1 L 72.5 33.4 L 74.1 31.7 L 75.7 30.0 L 77.2 28.4 L 78.8 26.8 L 80.4 25.3 L 81.9 23.9 L 83.5 22.5 L 85.1 21.2 L 86.6 20.0 L 88.2 18.9 L 89.8 17.8 L 91.3 16.8 L 92.9 15.9 L 94.5 15.1 L 96.0 14.4 L 97.6 13.8 L 99.2 13.2 L 100.7 12.8 L 102.3 12.4 L 103.9 12.2 L 105.4 12.0 L 107.0 12.0" fill="none" stroke="#2f74e6" stroke-width="2.6" stroke-linecap="round" stroke-linejoin="round"/></svg>
