<svg xmlns="http://www.w3.org/2000/svg" viewBox="0 0 120 96" role="img" aria-label="In-Out Back"><path d="M 13.0 80.7 L 14.6 80.8 L 16.1 81.0 L 17.7 81.2 L 19.3 81.5 L 20.8 81.9 L 22.4 82.3 L 24.0 82.6 L 25.5 83.0 L 27.1 83.4 L 28.7 83.7 L 30.2 83.9 L 31.8 84.0 L 33.4 84.0 L 34.9 83.9 L 36.5 83.6 L 38.1 83.2 L 39.6 82.5 L 41.2 81.7 L 42.8 80.6 L 44.3 79.3 L 45.9 77.7 L 47.5 75.8 L 49.0 73.6 L 50.6 71.1 L 52.2 68.2 L 53.7 65.0 L 55.3 61.4 L 56.9 57.4 L 58.4 52.9 L 60.0 48.0 L 61.6 43.1 L 63.1 38.6 L 64.7 34.6 L 66.3 31.0 L 67.8 27.8 L 69.4 24.9 L 71.0 22.4 L 72.5 20.2 L 74.1 18.3 L 75.7 16.7 L 77.2 15.4 L 78.8 14.3 L 80.4 13.5 L 81.9 12.8 L 83.5 12.4 L 85.1 12.1 L 86.6 12.0 L 88.2 12.0 L 89.8 12.1 L 91.3 12.3 L 92.9 12.6 L 94.5 13.0 L 96.0 13.4 L 97.6 13.7 L 99.2 14.1 L 100.7 14.5 L 102.3 14.8 L 103.9 15.0 L 105.4 15.2 L 107.0 15.3" fill="none" stroke="#2f74e6" stroke-width="2.6" stroke-linecap="round" stroke-linejoin="round"/></svg>
