<svg xmlns="http://www.w3.org/2000/svg" viewBox="0 0 120 96" role="img" aria-label="In-Out Elastic"><path d="M 13.0 74.2 L 14.0 74.2 L 15.1 74.2 L 16.1 74.2 L 17.2 74.2 L 18.2 74.2 L 19.3 74.2 L 20.3 74.2 L 21.4 74.2 L 22.4 74.3 L 23.4 74.3 L 24.5 74.4 L 25.5 74.4 L 26.6 74.4 L 27.6 74.3 L 28.7 74.2 L 29.7 74.0 L 30.8 73.9 L 31.8 73.8 L 32.8 73.8 L 33.9 73.9 L 34.9 74.1 L 36.0 74.4 L 37.0 74.8 L 38.1 75.2 L 39.1 75.4 L 40.2 75.4 L 41.2 75.0 L 42.2 74.3 L 43.3 73.3 L 44.3 72.2 L 45.4 71.3 L 46.4 70.8 L 47.5 71.1 L 48.5 72.3 L 49.6 74.5 L 50.6 77.5 L 51.6 80.6 L 52.7 83.1 L 53.7 84.0 L 54.8 82.6 L 55.8 78.3 L 56.9 71.4 L 57.9 62.7 L 59.0 54.1 L 60.0 48.0 L 61.0 41.9 L 62.1 33.3 L 63.1 24.6 L 64.2 17.7 L 65.2 13.4 L 66.3 12.0 L 67.3 12.9 L 68.4 15.4 L 69.4 18.5 L 70.4 21.5 L 71.5 23.7 L 72.5 24.9 L 73.6 25.2 L 74.6 24.7 L 75.7 23.8 L 76.7 22.7 L 77.8 21.7 L 78.8 21.0 L 79.8 20.6 L 80.9 20.6 L 81.9 20.8 L 83.0 21.2 L 84.0 21.6 L 85.1 21.9 L 86.1 22.1 L 87.2 22.2 L 88.2 22.2 L 89.2 22.1 L 90.3 22.0 L 91.3 21.8 L 92.4 21.7 L 93.4 21.6 L 94.5 21.6 L 95.5 21.6 L 96.6 21.7 L 97.6 21.7 L 98.6 21.8 L 99.7 21.8 L 100.7 21.8 L 101.8 21.8 L 102.8 21.8 L 103.9 21.8 L 104.9 21.8 L 106.0 21.8 L 107.0 21.8" fill="none" stroke="#2f74e6" stroke-width="2.6" stroke-linecap="round" stroke-linejoin="round"/></svg>
