<svg xmlns="http://www.w3.org/2000/svg" viewBox="0 0 120 96" role="img" aria-label="In-Out Circ"><path d="M 13.0 84.0 L 14.6 84.0 L 16.1 83.9 L 17.7 83.8 L 19.3 83.7 L 20.8 83.5 L 22.4 83.3 L 24.0 83.0 L 25.5 82.7 L 27.1 82.3 L 28.7 81.9 L 30.2 81.5 L 31.8 81.0 L 33.4 80.4 L 34.9 79.8 L 36.5 79.2 L 38.1 78.5 L 39.6 77.7 L 41.2 76.8 L 42.8 75.9 L 44.3 74.8 L 45.9 73.7 L 47.5 72.5 L 49.0 71.1 L 50.6 69.6 L 52.2 67.9 L 53.7 66.0 L 55.3 63.7 L 56.9 60.9 L 58.4 57.2 L 60.0 48.0 L 61.6 38.8 L 63.1 35.1 L 64.7 32.3 L 66.3 30.0 L 67.8 28.1 L 69.4 26.4 L 71.0 24.9 L 72.5 23.5 L 74.1 22.3 L 75.7 21.2 L 77.2 20.1 L 78.8 19.2 L 80.4 18.3 L 81.9 17.5 L 83.5 16.8 L 85.1 16.2 L 86.6 15.6 L 88.2 15.0 L 89.8 14.5 L 91.3 14.1 L 92.9 13.7 L 94.5 13.3 L 96.0 13.0 L 97.6 12.7 L 99.2 12.5 L 100.7 12.3 L 102.3 12.2 L 103.9 12.1 L 105.4 12.0 L 107.0 12.0" fill="none" stroke="#2f74e6" stroke-width="2.6" stroke-linecap="round" stroke-linejoin="round"/></svg>
