<svg xmlns="http://www.w3.org/2000/svg" viewBox="0 0 120 96" role="img" aria-label="In Sine"><path d="M 13.0 84.0 L 14.6 84.0 L 16.1 83.9 L 17.7 83.8 L 19.3 83.6 L 20.8 83.4 L 22.4 83.1 L 24.0 82.8 L 25.5 82.4 L 27.1 82.0 L 28.7 81.5 L 30.2 81.0 L 31.8 80.5 L 33.4 79.9 L 34.9 79.2 L 36.5 78.5 L 38.1 77.8 L 39.6 77.0 L 41.2 76.2 L 42.8 75.3 L 44.3 74.4 L 45.9 73.4 L 47.5 72.4 L 49.0 71.3 L 50.6 70.2 L 52.2 69.1 L 53.7 68.0 L 55.3 66.7 L 56.9 65.5 L 58.4 64.2 L 60.0 62.9 L 61.6 61.6 L 63.1 60.2 L 64.7 58.8 L 66.3 57.3 L 67.8 55.8 L 69.4 54.3 L 71.0 52.8 L 72.5 51.2 L 74.1 49.6 L 75.7 48.0 L 77.2 46.4 L 78.8 44.7 L 80.4 43.0 L 81.9 41.3 L 83.5 39.6 L 85.1 37.8 L 86.6 36.0 L 88.2 34.2 L 89.8 32.4 L 91.3 30.6 L 92.9 28.8 L 94.5 27.0 L 96.0 25.1 L 97.6 23.3 L 99.2 21.4 L 100.7 19.5 L 102.3 17.6 L 103.9 15.8 L 105.4 13.9 L 107.0 12.0" fill="none" stroke="#2f74e6" stroke-width="2.6" stroke-linecap="round" stroke-linejoin="round"/></svg>
