<svg xmlns="http://www.w3.org/2000/svg" viewBox="0 0 120 96" role="img" aria-label="Irregular Light"><path d="M 13.0 84.0 L 14.3 82.9 L 15.6 81.8 L 16.9 80.8 L 18.2 79.6 L 19.5 78.5 L 20.8 77.4 L 22.1 76.2 L 23.4 75.0 L 24.8 73.8 L 26.1 72.7 L 27.4 71.5 L 28.7 70.4 L 30.0 69.3 L 31.3 68.2 L 32.6 67.2 L 33.9 66.2 L 35.2 65.2 L 36.5 64.3 L 37.8 63.4 L 39.1 62.5 L 40.4 61.5 L 41.7 60.6 L 43.0 59.7 L 44.3 58.8 L 45.6 57.9 L 46.9 56.9 L 48.3 55.9 L 49.6 54.9 L 50.9 53.8 L 52.2 52.7 L 53.5 51.6 L 54.8 50.5 L 56.1 49.4 L 57.4 48.3 L 58.7 47.2 L 60.0 46.1 L 61.3 45.1 L 62.6 44.1 L 63.9 43.0 L 65.2 42.0 L 66.5 41.0 L 67.8 40.0 L 69.1 38.9 L 70.4 37.8 L 71.8 36.7 L 73.1 35.5 L 74.4 34.4 L 75.7 33.3 L 77.0 32.2 L 78.3 31.1 L 79.6 30.1 L 80.9 29.1 L 82.2 28.2 L 83.5 27.3 L 84.8 26.4 L 86.1 25.5 L 87.4 24.5 L 88.7 23.5 L 90.0 22.4 L 91.3 21.3 L 92.6 20.1 L 93.9 18.9 L 95.3 17.7 L 96.6 16.5 L 97.9 15.5 L 99.2 14.6 L 100.5 13.8 L 101.8 13.2 L 103.1 12.7 L 104.4 12.4 L 105.7 12.2 L 107.0 12.0" fill="none" stroke="#2f74e6" stroke-width="2.6" stroke-linecap="round" stroke-linejoin="round"/></svg>
