<svg xmlns="http://www.w3.org/2000/svg" viewBox="0 0 120 96" role="img" aria-label="Irregular Heavy"><path d="M 13.0 84.0 L 14.3 82.8 L 15.6 81.6 L 16.9 80.4 L 18.2 79.2 L 19.5 77.9 L 20.8 76.5 L 22.1 75.1 L 23.4 73.7 L 24.8 72.3 L 26.1 70.9 L 27.4 69.6 L 28.7 68.3 L 30.0 67.0 L 31.3 65.9 L 32.6 64.8 L 33.9 63.8 L 35.2 62.9 L 36.5 62.0 L 37.8 61.2 L 39.1 60.4 L 40.4 59.6 L 41.7 58.8 L 43.0 58.0 L 44.3 57.2 L 45.6 56.3 L 46.9 55.4 L 48.3 54.4 L 49.6 53.3 L 50.9 52.2 L 52.2 51.0 L 53.5 49.8 L 54.8 48.5 L 56.1 47.2 L 57.4 46.0 L 58.7 44.7 L 60.0 43.6 L 61.3 42.5 L 62.6 41.5 L 63.9 40.4 L 65.2 39.4 L 66.5 38.4 L 67.8 37.3 L 69.1 36.1 L 70.4 34.9 L 71.8 33.6 L 73.1 32.3 L 74.4 30.9 L 75.7 29.6 L 77.0 28.4 L 78.3 27.2 L 79.6 26.2 L 80.9 25.3 L 82.2 24.5 L 83.5 23.7 L 84.8 22.9 L 86.1 22.1 L 87.4 21.2 L 88.7 20.2 L 90.0 19.0 L 91.3 17.7 L 92.6 16.2 L 93.9 14.7 L 95.3 13.2 L 96.6 12.0 L 97.9 12.0 L 99.2 12.0 L 100.5 12.0 L 101.8 12.0 L 103.1 12.0 L 104.4 12.0 L 105.7 12.0 L 107.0 12.0" fill="none" stroke="#2f74e6" stroke-width="2.6" stroke-linecap="round" stroke-linejoin="round"/></svg>
