<svg xmlns="http://www.w3.org/2000/svg" viewBox="0 0 120 96" role="img" aria-label="Out-In Sine"><path d="M 13.0 84.0 L 14.6 82.1 L 16.1 80.2 L 17.7 78.4 L 19.3 76.5 L 20.8 74.7 L 22.4 72.9 L 24.0 71.1 L 25.5 69.4 L 27.1 67.7 L 28.7 66.0 L 30.2 64.4 L 31.8 62.8 L 33.4 61.3 L 34.9 59.9 L 36.5 58.5 L 38.1 57.2 L 39.6 56.0 L 41.2 54.9 L 42.8 53.8 L 44.3 52.8 L 45.9 51.9 L 47.5 51.1 L 49.0 50.4 L 50.6 49.8 L 52.2 49.2 L 53.7 48.8 L 55.3 48.4 L 56.9 48.2 L 58.4 48.0 L 60.0 48.0 L 61.6 48.0 L 63.1 47.8 L 64.7 47.6 L 66.3 47.2 L 67.8 46.8 L 69.4 46.2 L 71.0 45.6 L 72.5 44.9 L 74.1 44.1 L 75.7 43.2 L 77.2 42.2 L 78.8 41.1 L 80.4 40.0 L 81.9 38.8 L 83.5 37.5 L 85.1 36.1 L 86.6 34.7 L 88.2 33.2 L 89.8 31.6 L 91.3 30.0 L 92.9 28.3 L 94.5 26.6 L 96.0 24.9 L 97.6 23.1 L 99.2 21.3 L 100.7 19.5 L 102.3 17.6 L 103.9 15.8 L 105.4 13.9 L 107.0 12.0" fill="none" stroke="#2f74e6" stroke-width="2.6" stroke-linecap="round" stroke-linejoin="round"/></svg>
