<svg xmlns="http://www.w3.org/2000/svg" viewBox="0 0 120 96" role="img" aria-label="Out Expo"><path d="M 13.0 84.0 L 14.6 76.1 L 16.1 69.1 L 17.7 62.9 L 19.3 57.4 L 20.8 52.4 L 22.4 48.0 L 24.0 44.1 L 25.5 40.6 L 27.1 37.5 L 28.7 34.7 L 30.2 32.2 L 31.8 30.0 L 33.4 28.0 L 34.9 26.3 L 36.5 24.7 L 38.1 23.3 L 39.6 22.1 L 41.2 21.0 L 42.8 20.0 L 44.3 19.1 L 45.9 18.4 L 47.5 17.7 L 49.0 17.1 L 50.6 16.5 L 52.2 16.0 L 53.7 15.6 L 55.3 15.2 L 56.9 14.8 L 58.4 14.5 L 60.0 14.3 L 61.6 14.0 L 63.1 13.8 L 64.7 13.6 L 66.3 13.4 L 67.8 13.3 L 69.4 13.1 L 71.0 13.0 L 72.5 12.9 L 74.1 12.8 L 75.7 12.7 L 77.2 12.6 L 78.8 12.6 L 80.4 12.5 L 81.9 12.4 L 83.5 12.4 L 85.1 12.4 L 86.6 12.3 L 88.2 12.3 L 89.8 12.3 L 91.3 12.2 L 92.9 12.2 L 94.5 12.2 L 96.0 12.2 L 97.6 12.1 L 99.2 12.1 L 100.7 12.1 L 102.3 12.1 L 103.9 12.1 L 105.4 12.1 L 107.0 12.0" fill="none" stroke="#2f74e6" stroke-width="2.6" stroke-linecap="round" stroke-linejoin="round"/></svg>
