<svg xmlns="http://www.w3.org/2000/svg" viewBox="0 0 120 96" role="img" aria-label="Out Back"><path d="M 13.0 84.0 L 14.6 79.0 L 16.1 74.2 L 17.7 69.6 L 19.3 65.3 L 20.8 61.2 L 22.4 57.2 L 24.0 53.5 L 25.5 50.0 L 27.1 46.7 L 28.7 43.5 L 30.2 40.6 L 31.8 37.8 L 33.4 35.2 L 34.9 32.8 L 36.5 30.5 L 38.1 28.4 L 39.6 26.4 L 41.2 24.6 L 42.8 23.0 L 44.3 21.4 L 45.9 20.1 L 47.5 18.8 L 49.0 17.7 L 50.6 16.6 L 52.2 15.7 L 53.7 15.0 L 55.3 14.3 L 56.9 13.7 L 58.4 13.2 L 60.0 12.8 L 61.6 12.5 L 63.1 12.3 L 64.7 12.1 L 66.3 12.0 L 67.8 12.0 L 69.4 12.0 L 71.0 12.1 L 72.5 12.3 L 74.1 12.5 L 75.7 12.7 L 77.2 13.0 L 78.8 13.3 L 80.4 13.6 L 81.9 14.0 L 83.5 14.3 L 85.1 14.7 L 86.6 15.1 L 88.2 15.5 L 89.8 15.9 L 91.3 16.3 L 92.9 16.6 L 94.5 17.0 L 96.0 17.3 L 97.6 17.6 L 99.2 17.9 L 100.7 18.1 L 102.3 18.3 L 103.9 18.4 L 105.4 18.5 L 107.0 18.5" fill="none" stroke="#2f74e6" stroke-width="2.6" stroke-linecap="round" stroke-linejoin="round"/></svg>
