<svg xmlns="http://www.w3.org/2000/svg" viewBox="0 0 120 96" role="img" aria-label="Out-In Circ"><path d="M 13.0 84.0 L 14.6 74.8 L 16.1 71.1 L 17.7 68.3 L 19.3 66.0 L 20.8 64.1 L 22.4 62.4 L 24.0 60.9 L 25.5 59.5 L 27.1 58.3 L 28.7 57.2 L 30.2 56.1 L 31.8 55.2 L 33.4 54.3 L 34.9 53.5 L 36.5 52.8 L 38.1 52.2 L 39.6 51.6 L 41.2 51.0 L 42.8 50.5 L 44.3 50.1 L 45.9 49.7 L 47.5 49.3 L 49.0 49.0 L 50.6 48.7 L 52.2 48.5 L 53.7 48.3 L 55.3 48.2 L 56.9 48.1 L 58.4 48.0 L 60.0 48.0 L 61.6 48.0 L 63.1 47.9 L 64.7 47.8 L 66.3 47.7 L 67.8 47.5 L 69.4 47.3 L 71.0 47.0 L 72.5 46.7 L 74.1 46.3 L 75.7 45.9 L 77.2 45.5 L 78.8 45.0 L 80.4 44.4 L 81.9 43.8 L 83.5 43.2 L 85.1 42.5 L 86.6 41.7 L 88.2 40.8 L 89.8 39.9 L 91.3 38.8 L 92.9 37.7 L 94.5 36.5 L 96.0 35.1 L 97.6 33.6 L 99.2 31.9 L 100.7 30.0 L 102.3 27.7 L 103.9 24.9 L 105.4 21.2 L 107.0 12.0" fill="none" stroke="#2f74e6" stroke-width="2.6" stroke-linecap="round" stroke-linejoin="round"/></svg>
