<svg xmlns="http://www.w3.org/2000/svg" viewBox="0 0 120 96" role="img" aria-label="Out-In Expo"><path d="M 13.0 84.0 L 14.6 76.6 L 16.1 70.7 L 17.7 66.0 L 19.3 62.3 L 20.8 59.3 L 22.4 57.0 L 24.0 55.1 L 25.5 53.7 L 27.1 52.5 L 28.7 51.6 L 30.2 50.8 L 31.8 50.3 L 33.4 49.8 L 34.9 49.4 L 36.5 49.1 L 38.1 48.9 L 39.6 48.7 L 41.2 48.6 L 42.8 48.4 L 44.3 48.4 L 45.9 48.3 L 47.5 48.2 L 49.0 48.2 L 50.6 48.1 L 52.2 48.1 L 53.7 48.1 L 55.3 48.1 L 56.9 48.1 L 58.4 48.0 L 60.0 48.0 L 61.6 48.0 L 63.1 47.9 L 64.7 47.9 L 66.3 47.9 L 67.8 47.9 L 69.4 47.9 L 71.0 47.8 L 72.5 47.8 L 74.1 47.7 L 75.7 47.6 L 77.2 47.6 L 78.8 47.4 L 80.4 47.3 L 81.9 47.1 L 83.5 46.9 L 85.1 46.6 L 86.6 46.2 L 88.2 45.8 L 89.8 45.2 L 91.3 44.4 L 92.9 43.5 L 94.5 42.3 L 96.0 40.9 L 97.6 39.0 L 99.2 36.7 L 100.7 33.7 L 102.3 30.0 L 103.9 25.3 L 105.4 19.4 L 107.0 12.0" fill="none" stroke="#2f74e6" stroke-width="2.6" stroke-linecap="round" stroke-linejoin="round"/></svg>
