<svg xmlns="http://www.w3.org/2000/svg" viewBox="0 0 120 96" role="img" aria-label="Out-In Elastic"><path d="M 13.0 84.0 L 14.0 75.6 L 15.1 63.8 L 16.1 51.9 L 17.2 42.4 L 18.2 36.6 L 19.3 34.6 L 20.3 35.8 L 21.4 39.2 L 22.4 43.5 L 23.4 47.6 L 24.5 50.6 L 25.5 52.3 L 26.6 52.7 L 27.6 52.1 L 28.7 50.7 L 29.7 49.2 L 30.8 47.8 L 31.8 46.9 L 32.8 46.4 L 33.9 46.4 L 34.9 46.7 L 36.0 47.2 L 37.0 47.7 L 38.1 48.2 L 39.1 48.5 L 40.2 48.6 L 41.2 48.6 L 42.2 48.4 L 43.3 48.2 L 44.3 48.1 L 45.4 47.9 L 46.4 47.8 L 47.5 47.8 L 48.5 47.8 L 49.6 47.9 L 50.6 47.9 L 51.6 48.0 L 52.7 48.0 L 53.7 48.1 L 54.8 48.1 L 55.8 48.1 L 56.9 48.0 L 57.9 48.0 L 59.0 48.0 L 60.0 48.0 L 61.0 48.0 L 62.1 48.0 L 63.1 48.0 L 64.2 47.9 L 65.2 47.9 L 66.3 47.9 L 67.3 48.0 L 68.4 48.0 L 69.4 48.1 L 70.4 48.1 L 71.5 48.2 L 72.5 48.2 L 73.6 48.2 L 74.6 48.1 L 75.7 47.9 L 76.7 47.8 L 77.8 47.6 L 78.8 47.4 L 79.8 47.4 L 80.9 47.5 L 81.9 47.8 L 83.0 48.3 L 84.0 48.8 L 85.1 49.3 L 86.1 49.6 L 87.2 49.6 L 88.2 49.1 L 89.2 48.2 L 90.3 46.8 L 91.3 45.3 L 92.4 43.9 L 93.4 43.3 L 94.5 43.7 L 95.5 45.4 L 96.6 48.4 L 97.6 52.5 L 98.6 56.8 L 99.7 60.2 L 100.7 61.4 L 101.8 59.4 L 102.8 53.6 L 103.9 44.1 L 104.9 32.2 L 106.0 20.4 L 107.0 12.0" fill="none" stroke="#2f74e6" stroke-width="2.6" stroke-linecap="round" stroke-linejoin="round"/></svg>
