<svg xmlns="http://www.w3.org/2000/svg" viewBox="0 0 120 96" role="img" aria-label="Out-In Bounce"><path d="M 13.0 84.0 L 14.0 83.9 L 15.1 83.5 L 16.1 82.8 L 17.2 81.8 L 18.2 80.6 L 19.3 79.2 L 20.3 77.4 L 21.4 75.4 L 22.4 73.1 L 23.4 70.6 L 24.5 67.7 L 25.5 64.6 L 26.6 61.3 L 27.6 57.6 L 28.7 53.8 L 29.7 49.6 L 30.8 49.3 L 31.8 51.2 L 32.8 52.9 L 33.9 54.2 L 34.9 55.3 L 36.0 56.1 L 37.0 56.7 L 38.1 57.0 L 39.1 57.0 L 40.2 56.7 L 41.2 56.2 L 42.2 55.4 L 43.3 54.3 L 44.3 53.0 L 45.4 51.4 L 46.4 49.5 L 47.5 48.3 L 48.5 49.2 L 49.6 49.8 L 50.6 50.2 L 51.6 50.2 L 52.7 50.1 L 53.7 49.6 L 54.8 48.9 L 55.8 48.0 L 56.9 48.4 L 57.9 48.6 L 59.0 48.4 L 60.0 48.0 L 61.0 47.6 L 62.1 47.4 L 63.1 47.6 L 64.2 48.0 L 65.2 47.1 L 66.3 46.4 L 67.3 45.9 L 68.4 45.8 L 69.4 45.8 L 70.4 46.2 L 71.5 46.8 L 72.5 47.7 L 73.6 46.5 L 74.6 44.6 L 75.7 43.0 L 76.7 41.7 L 77.8 40.6 L 78.8 39.8 L 79.8 39.3 L 80.9 39.0 L 81.9 39.0 L 83.0 39.3 L 84.0 39.9 L 85.1 40.7 L 86.1 41.8 L 87.2 43.1 L 88.2 44.8 L 89.2 46.7 L 90.3 46.4 L 91.3 42.2 L 92.4 38.4 L 93.4 34.7 L 94.5 31.4 L 95.5 28.3 L 96.6 25.4 L 97.6 22.9 L 98.6 20.6 L 99.7 18.6 L 100.7 16.8 L 101.8 15.4 L 102.8 14.2 L 103.9 13.2 L 104.9 12.5 L 106.0 12.1 L 107.0 12.0" fill="none" stroke="#2f74e6" stroke-width="2.6" stroke-linecap="round" stroke-linejoin="round"/></svg>
