<svg xmlns="http://www.w3.org/2000/svg" viewBox="0 0 120 96" role="img" aria-label="Out-In Back"><path d="M 13.0 84.0 L 14.6 78.6 L 16.1 73.7 L 17.7 69.3 L 19.3 65.3 L 20.8 61.7 L 22.4 58.6 L 24.0 55.8 L 25.5 53.4 L 27.1 51.3 L 28.7 49.6 L 30.2 48.1 L 31.8 47.0 L 33.4 46.0 L 34.9 45.3 L 36.5 44.8 L 38.1 44.5 L 39.6 44.4 L 41.2 44.4 L 42.8 44.6 L 44.3 44.8 L 45.9 45.1 L 47.5 45.5 L 49.0 45.9 L 50.6 46.3 L 52.2 46.7 L 53.7 47.1 L 55.3 47.5 L 56.9 47.8 L 58.4 47.9 L 60.0 48.0 L 61.6 48.1 L 63.1 48.2 L 64.7 48.5 L 66.3 48.9 L 67.8 49.3 L 69.4 49.7 L 71.0 50.1 L 72.5 50.5 L 74.1 50.9 L 75.7 51.2 L 77.2 51.4 L 78.8 51.6 L 80.4 51.6 L 81.9 51.5 L 83.5 51.2 L 85.1 50.7 L 86.6 50.0 L 88.2 49.0 L 89.8 47.9 L 91.3 46.4 L 92.9 44.7 L 94.5 42.6 L 96.0 40.2 L 97.6 37.4 L 99.2 34.3 L 100.7 30.7 L 102.3 26.7 L 103.9 22.3 L 105.4 17.4 L 107.0 12.0" fill="none" stroke="#2f74e6" stroke-width="2.6" stroke-linecap="round" stroke-linejoin="round"/></svg>
