<svg xmlns="http://www.w3.org/2000/svg" viewBox="0 0 120 96" role="img" aria-label="Out Elastic"><path d="M 13.0 84.0 L 14.0 78.8 L 15.1 71.7 L 16.1 63.4 L 17.2 54.6 L 18.2 45.7 L 19.3 37.3 L 20.3 29.8 L 21.4 23.4 L 22.4 18.4 L 23.4 14.9 L 24.5 12.8 L 25.5 12.0 L 26.6 12.4 L 27.6 13.8 L 28.7 16.0 L 29.7 18.8 L 30.8 21.8 L 31.8 25.0 L 32.8 28.1 L 33.9 30.9 L 34.9 33.4 L 36.0 35.4 L 37.0 36.9 L 38.1 37.9 L 39.1 38.4 L 40.2 38.4 L 41.2 38.1 L 42.2 37.5 L 43.3 36.6 L 44.3 35.5 L 45.4 34.4 L 46.4 33.3 L 47.5 32.3 L 48.5 31.3 L 49.6 30.5 L 50.6 29.9 L 51.6 29.5 L 52.7 29.2 L 53.7 29.1 L 54.8 29.2 L 55.8 29.3 L 56.9 29.6 L 57.9 30.0 L 59.0 30.3 L 60.0 30.7 L 61.0 31.1 L 62.1 31.5 L 63.1 31.8 L 64.2 32.0 L 65.2 32.2 L 66.3 32.3 L 67.3 32.4 L 68.4 32.4 L 69.4 32.4 L 70.4 32.3 L 71.5 32.2 L 72.5 32.1 L 73.6 31.9 L 74.6 31.8 L 75.7 31.6 L 76.7 31.5 L 77.8 31.4 L 78.8 31.4 L 79.8 31.3 L 80.9 31.3 L 81.9 31.3 L 83.0 31.3 L 84.0 31.3 L 85.1 31.3 L 86.1 31.4 L 87.2 31.4 L 88.2 31.5 L 89.2 31.5 L 90.3 31.5 L 91.3 31.6 L 92.4 31.6 L 93.4 31.6 L 94.5 31.7 L 95.5 31.7 L 96.6 31.7 L 97.6 31.7 L 98.6 31.6 L 99.7 31.6 L 100.7 31.6 L 101.8 31.6 L 102.8 31.6 L 103.9 31.6 L 104.9 31.6 L 106.0 31.5 L 107.0 31.6" fill="none" stroke="#2f74e6" stroke-width="2.6" stroke-linecap="round" stroke-linejoin="round"/></svg>
