<svg xmlns="http://www.w3.org/2000/svg" viewBox="0 0 120 96" role="img" aria-label="Out Circ"><path d="M 13.0 84.0 L 14.6 70.9 L 16.1 65.6 L 17.7 61.5 L 19.3 58.2 L 20.8 55.2 L 22.4 52.6 L 24.0 50.3 L 25.5 48.1 L 27.1 46.1 L 28.7 44.2 L 30.2 42.4 L 31.8 40.8 L 33.4 39.2 L 34.9 37.8 L 36.5 36.4 L 38.1 35.0 L 39.6 33.8 L 41.2 32.6 L 42.8 31.4 L 44.3 30.3 L 45.9 29.3 L 47.5 28.3 L 49.0 27.3 L 50.6 26.4 L 52.2 25.5 L 53.7 24.7 L 55.3 23.9 L 56.9 23.1 L 58.4 22.4 L 60.0 21.6 L 61.6 21.0 L 63.1 20.3 L 64.7 19.7 L 66.3 19.1 L 67.8 18.5 L 69.4 18.0 L 71.0 17.5 L 72.5 17.0 L 74.1 16.6 L 75.7 16.1 L 77.2 15.7 L 78.8 15.3 L 80.4 15.0 L 81.9 14.6 L 83.5 14.3 L 85.1 14.0 L 86.6 13.7 L 88.2 13.5 L 89.8 13.2 L 91.3 13.0 L 92.9 12.8 L 94.5 12.6 L 96.0 12.5 L 97.6 12.4 L 99.2 12.3 L 100.7 12.2 L 102.3 12.1 L 103.9 12.0 L 105.4 12.0 L 107.0 12.0" fill="none" stroke="#2f74e6" stroke-width="2.6" stroke-linecap="round" stroke-linejoin="round"/></svg>
