<svg xmlns="http://www.w3.org/2000/svg" viewBox="0 0 120 96" role="img" aria-label="Out Sine"><path d="M 13.0 84.0 L 14.6 82.1 L 16.1 80.2 L 17.7 78.4 L 19.3 76.5 L 20.8 74.6 L 22.4 72.7 L 24.0 70.9 L 25.5 69.0 L 27.1 67.2 L 28.7 65.4 L 30.2 63.6 L 31.8 61.8 L 33.4 60.0 L 34.9 58.2 L 36.5 56.4 L 38.1 54.7 L 39.6 53.0 L 41.2 51.3 L 42.8 49.6 L 44.3 48.0 L 45.9 46.4 L 47.5 44.8 L 49.0 43.2 L 50.6 41.7 L 52.2 40.2 L 53.7 38.7 L 55.3 37.2 L 56.9 35.8 L 58.4 34.4 L 60.0 33.1 L 61.6 31.8 L 63.1 30.5 L 64.7 29.3 L 66.3 28.0 L 67.8 26.9 L 69.4 25.8 L 71.0 24.7 L 72.5 23.6 L 74.1 22.6 L 75.7 21.6 L 77.2 20.7 L 78.8 19.8 L 80.4 19.0 L 81.9 18.2 L 83.5 17.5 L 85.1 16.8 L 86.6 16.1 L 88.2 15.5 L 89.8 15.0 L 91.3 14.5 L 92.9 14.0 L 94.5 13.6 L 96.0 13.2 L 97.6 12.9 L 99.2 12.6 L 100.7 12.4 L 102.3 12.2 L 103.9 12.1 L 105.4 12.0 L 107.0 12.0" fill="none" stroke="#2f74e6" stroke-width="2.6" stroke-linecap="round" stroke-linejoin="round"/></svg>
