<svg xmlns="http://www.w3.org/2000/svg" viewBox="0 0 120 96" role="img" aria-label="Out Bounce"><path d="M 13.0 84.0 L 14.0 83.9 L 15.1 83.7 L 16.1 83.4 L 17.2 82.9 L 18.2 82.3 L 19.3 81.6 L 20.3 80.7 L 21.4 79.7 L 22.4 78.6 L 23.4 77.3 L 24.5 75.9 L 25.5 74.3 L 26.6 72.6 L 27.6 70.8 L 28.7 68.9 L 29.7 66.8 L 30.8 64.6 L 31.8 62.2 L 32.8 59.7 L 33.9 57.1 L 34.9 54.4 L 36.0 51.5 L 37.0 48.4 L 38.1 45.3 L 39.1 42.0 L 40.2 38.6 L 41.2 35.0 L 42.2 31.3 L 43.3 27.5 L 44.3 23.5 L 45.4 19.4 L 46.4 15.2 L 47.5 12.6 L 48.5 14.7 L 49.6 16.7 L 50.6 18.5 L 51.6 20.2 L 52.7 21.7 L 53.7 23.2 L 54.8 24.4 L 55.8 25.6 L 56.9 26.6 L 57.9 27.5 L 59.0 28.3 L 60.0 28.9 L 61.0 29.4 L 62.1 29.7 L 63.1 29.9 L 64.2 30.0 L 65.2 29.9 L 66.3 29.8 L 67.3 29.4 L 68.4 29.0 L 69.4 28.4 L 70.4 27.7 L 71.5 26.8 L 72.5 25.8 L 73.6 24.7 L 74.6 23.4 L 75.7 22.0 L 76.7 20.5 L 77.8 18.8 L 78.8 17.0 L 79.8 15.1 L 80.9 13.0 L 81.9 12.6 L 83.0 13.5 L 84.0 14.4 L 85.1 15.1 L 86.1 15.6 L 87.2 16.0 L 88.2 16.3 L 89.2 16.5 L 90.3 16.5 L 91.3 16.4 L 92.4 16.1 L 93.4 15.7 L 94.5 15.2 L 95.5 14.6 L 96.6 13.8 L 97.6 12.9 L 98.6 12.1 L 99.7 12.6 L 100.7 12.9 L 101.8 13.1 L 102.8 13.1 L 103.9 13.0 L 104.9 12.8 L 106.0 12.5 L 107.0 12.0" fill="none" stroke="#2f74e6" stroke-width="2.6" stroke-linecap="round" stroke-linejoin="round"/></svg>
