<svg xmlns="http://www.w3.org/2000/svg" viewBox="0 0 120 96" role="img" aria-label="Power In"><path d="M 13.0 84.0 L 14.6 84.0 L 16.1 84.0 L 17.7 84.0 L 19.3 84.0 L 20.8 84.0 L 22.4 83.9 L 24.0 83.9 L 25.5 83.8 L 27.1 83.8 L 28.7 83.7 L 30.2 83.6 L 31.8 83.4 L 33.4 83.3 L 34.9 83.1 L 36.5 82.9 L 38.1 82.6 L 39.6 82.4 L 41.2 82.1 L 42.8 81.7 L 44.3 81.3 L 45.9 80.9 L 47.5 80.5 L 49.0 79.9 L 50.6 79.4 L 52.2 78.8 L 53.7 78.1 L 55.3 77.4 L 56.9 76.7 L 58.4 75.9 L 60.0 75.0 L 61.6 74.1 L 63.1 73.1 L 64.7 72.0 L 66.3 70.9 L 67.8 69.7 L 69.4 68.4 L 71.0 67.1 L 72.5 65.7 L 74.1 64.2 L 75.7 62.7 L 77.2 61.0 L 78.8 59.3 L 80.4 57.5 L 81.9 55.6 L 83.5 53.6 L 85.1 51.6 L 86.6 49.4 L 88.2 47.1 L 89.8 44.8 L 91.3 42.3 L 92.9 39.8 L 94.5 37.1 L 96.0 34.4 L 97.6 31.5 L 99.2 28.5 L 100.7 25.5 L 102.3 22.3 L 103.9 19.0 L 105.4 15.5 L 107.0 12.0" fill="none" stroke="#2f74e6" stroke-width="2.6" stroke-linecap="round" stroke-linejoin="round"/></svg>
