<svg xmlns="http://www.w3.org/2000/svg" viewBox="0 0 120 96" role="img" aria-label="Power Out-In"><path d="M 13.0 84.0 L 14.6 80.5 L 16.1 77.3 L 17.7 74.2 L 19.3 71.4 L 20.8 68.8 L 22.4 66.4 L 24.0 64.2 L 25.5 62.2 L 27.1 60.3 L 28.7 58.7 L 30.2 57.1 L 31.8 55.8 L 33.4 54.6 L 34.9 53.5 L 36.5 52.5 L 38.1 51.7 L 39.6 50.9 L 41.2 50.3 L 42.8 49.8 L 44.3 49.3 L 45.9 49.0 L 47.5 48.7 L 49.0 48.5 L 50.6 48.3 L 52.2 48.2 L 53.7 48.1 L 55.3 48.0 L 56.9 48.0 L 58.4 48.0 L 60.0 48.0 L 61.6 48.0 L 63.1 48.0 L 64.7 48.0 L 66.3 47.9 L 67.8 47.8 L 69.4 47.7 L 71.0 47.5 L 72.5 47.3 L 74.1 47.0 L 75.7 46.7 L 77.2 46.2 L 78.8 45.7 L 80.4 45.1 L 81.9 44.3 L 83.5 43.5 L 85.1 42.5 L 86.6 41.4 L 88.2 40.2 L 89.8 38.9 L 91.3 37.3 L 92.9 35.7 L 94.5 33.8 L 96.0 31.8 L 97.6 29.6 L 99.2 27.2 L 100.7 24.6 L 102.3 21.8 L 103.9 18.7 L 105.4 15.5 L 107.0 12.0" fill="none" stroke="#2f74e6" stroke-width="2.6" stroke-linecap="round" stroke-linejoin="round"/></svg>
