<svg xmlns="http://www.w3.org/2000/svg" viewBox="0 0 120 96" role="img" aria-label="Power Out"><path d="M 13.0 84.0 L 14.6 80.5 L 16.1 77.0 L 17.7 73.7 L 19.3 70.5 L 20.8 67.5 L 22.4 64.5 L 24.0 61.6 L 25.5 58.9 L 27.1 56.2 L 28.7 53.7 L 30.2 51.2 L 31.8 48.9 L 33.4 46.6 L 34.9 44.4 L 36.5 42.4 L 38.1 40.4 L 39.6 38.5 L 41.2 36.7 L 42.8 35.0 L 44.3 33.3 L 45.9 31.8 L 47.5 30.3 L 49.0 28.9 L 50.6 27.6 L 52.2 26.3 L 53.7 25.1 L 55.3 24.0 L 56.9 22.9 L 58.4 21.9 L 60.0 21.0 L 61.6 20.1 L 63.1 19.3 L 64.7 18.6 L 66.3 17.9 L 67.8 17.2 L 69.4 16.6 L 71.0 16.1 L 72.5 15.5 L 74.1 15.1 L 75.7 14.7 L 77.2 14.3 L 78.8 13.9 L 80.4 13.6 L 81.9 13.4 L 83.5 13.1 L 85.1 12.9 L 86.6 12.7 L 88.2 12.6 L 89.8 12.4 L 91.3 12.3 L 92.9 12.2 L 94.5 12.2 L 96.0 12.1 L 97.6 12.1 L 99.2 12.0 L 100.7 12.0 L 102.3 12.0 L 103.9 12.0 L 105.4 12.0 L 107.0 12.0" fill="none" stroke="#2f74e6" stroke-width="2.6" stroke-linecap="round" stroke-linejoin="round"/></svg>
