<svg xmlns="http://www.w3.org/2000/svg" viewBox="0 0 120 96" role="img" aria-label="Spring Snappy"><path d="M 13.0 84.0 L 14.6 82.5 L 16.1 78.5 L 17.7 72.8 L 19.3 66.2 L 20.8 59.1 L 22.4 52.0 L 24.0 45.2 L 25.5 38.9 L 27.1 33.3 L 28.7 28.3 L 30.2 24.1 L 31.8 20.7 L 33.4 17.9 L 34.9 15.8 L 36.5 14.2 L 38.1 13.1 L 39.6 12.5 L 41.2 12.1 L 42.8 12.0 L 44.3 12.1 L 45.9 12.3 L 47.5 12.7 L 49.0 13.1 L 50.6 13.5 L 52.2 13.9 L 53.7 14.3 L 55.3 14.6 L 56.9 15.0 L 58.4 15.3 L 60.0 15.5 L 61.6 15.7 L 63.1 15.9 L 64.7 16.0 L 66.3 16.1 L 67.8 16.1 L 69.4 16.2 L 71.0 16.2 L 72.5 16.2 L 74.1 16.2 L 75.7 16.2 L 77.2 16.2 L 78.8 16.1 L 80.4 16.1 L 81.9 16.1 L 83.5 16.1 L 85.1 16.0 L 86.6 16.0 L 88.2 16.0 L 89.8 16.0 L 91.3 16.0 L 92.9 16.0 L 94.5 16.0 L 96.0 16.0 L 97.6 16.0 L 99.2 16.0 L 100.7 16.0 L 102.3 16.0 L 103.9 16.0 L 105.4 16.0 L 107.0 16.0" fill="none" stroke="#2f74e6" stroke-width="2.6" stroke-linecap="round" stroke-linejoin="round"/></svg>
