<svg xmlns="http://www.w3.org/2000/svg" viewBox="0 0 120 96" role="img" aria-label="Spring Strong"><path d="M 13.0 84.0 L 14.6 82.1 L 16.1 77.0 L 17.7 69.7 L 19.3 60.9 L 20.8 51.6 L 22.4 42.4 L 24.0 34.0 L 25.5 26.7 L 27.1 20.7 L 28.7 16.4 L 30.2 13.5 L 31.8 12.1 L 33.4 12.0 L 34.9 12.9 L 36.5 14.7 L 38.1 16.9 L 39.6 19.5 L 41.2 22.2 L 42.8 24.7 L 44.3 27.0 L 45.9 28.9 L 47.5 30.4 L 49.0 31.5 L 50.6 32.1 L 52.2 32.4 L 53.7 32.3 L 55.3 31.9 L 56.9 31.3 L 58.4 30.6 L 60.0 29.9 L 61.6 29.2 L 63.1 28.5 L 64.7 27.9 L 66.3 27.4 L 67.8 27.0 L 69.4 26.7 L 71.0 26.6 L 72.5 26.6 L 74.1 26.6 L 75.7 26.8 L 77.2 26.9 L 78.8 27.1 L 80.4 27.3 L 81.9 27.6 L 83.5 27.7 L 85.1 27.9 L 86.6 28.0 L 88.2 28.1 L 89.8 28.2 L 91.3 28.2 L 92.9 28.2 L 94.5 28.2 L 96.0 28.1 L 97.6 28.1 L 99.2 28.0 L 100.7 28.0 L 102.3 27.9 L 103.9 27.9 L 105.4 27.8 L 107.0 27.8" fill="none" stroke="#2f74e6" stroke-width="2.6" stroke-linecap="round" stroke-linejoin="round"/></svg>
