<svg xmlns="http://www.w3.org/2000/svg" viewBox="0 0 120 96" role="img" aria-label="Spring Default"><path d="M 13.0 84.0 L 14.6 83.2 L 16.1 80.9 L 17.7 77.5 L 19.3 73.2 L 20.8 68.3 L 22.4 62.9 L 24.0 57.3 L 25.5 51.7 L 27.1 46.2 L 28.7 40.9 L 30.2 36.0 L 31.8 31.4 L 33.4 27.3 L 34.9 23.7 L 36.5 20.6 L 38.1 18.1 L 39.6 16.0 L 41.2 14.4 L 42.8 13.2 L 44.3 12.5 L 45.9 12.1 L 47.5 12.0 L 49.0 12.2 L 50.6 12.6 L 52.2 13.2 L 53.7 13.9 L 55.3 14.8 L 56.9 15.6 L 58.4 16.6 L 60.0 17.5 L 61.6 18.4 L 63.1 19.2 L 64.7 20.0 L 66.3 20.7 L 67.8 21.4 L 69.4 21.9 L 71.0 22.4 L 72.5 22.8 L 74.1 23.1 L 75.7 23.4 L 77.2 23.6 L 78.8 23.7 L 80.4 23.7 L 81.9 23.7 L 83.5 23.7 L 85.1 23.6 L 86.6 23.5 L 88.2 23.4 L 89.8 23.2 L 91.3 23.1 L 92.9 23.0 L 94.5 22.8 L 96.0 22.7 L 97.6 22.5 L 99.2 22.4 L 100.7 22.3 L 102.3 22.2 L 103.9 22.1 L 105.4 22.0 L 107.0 22.1" fill="none" stroke="#2f74e6" stroke-width="2.6" stroke-linecap="round" stroke-linejoin="round"/></svg>
