<svg xmlns="http://www.w3.org/2000/svg" viewBox="0 0 120 96" role="img" aria-label="Spring Bouncy"><path d="M 13.0 84.0 L 14.6 83.1 L 16.1 80.7 L 17.7 77.0 L 19.3 72.2 L 20.8 66.7 L 22.4 60.6 L 24.0 54.3 L 25.5 47.9 L 27.1 41.6 L 28.7 35.7 L 30.2 30.3 L 31.8 25.5 L 33.4 21.4 L 34.9 18.0 L 36.5 15.4 L 38.1 13.5 L 39.6 12.4 L 41.2 12.0 L 42.8 12.2 L 44.3 13.0 L 45.9 14.2 L 47.5 15.8 L 49.0 17.7 L 50.6 19.8 L 52.2 21.9 L 53.7 24.2 L 55.3 26.3 L 56.9 28.4 L 58.4 30.3 L 60.0 32.0 L 61.6 33.5 L 63.1 34.7 L 64.7 35.7 L 66.3 36.3 L 67.8 36.8 L 69.4 36.9 L 71.0 36.9 L 72.5 36.7 L 74.1 36.3 L 75.7 35.7 L 77.2 35.1 L 78.8 34.4 L 80.4 33.6 L 81.9 32.9 L 83.5 32.1 L 85.1 31.4 L 86.6 30.7 L 88.2 30.1 L 89.8 29.6 L 91.3 29.1 L 92.9 28.8 L 94.5 28.5 L 96.0 28.4 L 97.6 28.3 L 99.2 28.3 L 100.7 28.4 L 102.3 28.5 L 103.9 28.7 L 105.4 28.9 L 107.0 30.5" fill="none" stroke="#2f74e6" stroke-width="2.6" stroke-linecap="round" stroke-linejoin="round"/></svg>
