<svg xmlns="http://www.w3.org/2000/svg" width="100" height="56" viewBox="0 0 100 56" fill="none">
  <rect width="100" height="56" rx="4" fill="#f5f7fa"/>
  <g fill="#fff" stroke="#e2e8f0"><rect x="10" y="10" width="24" height="16" rx="3"/><rect x="38" y="10" width="24" height="16" rx="3"/><rect x="66" y="10" width="24" height="16" rx="3"/><rect x="10" y="30" width="24" height="16" rx="3"/><rect x="38" y="30" width="24" height="16" rx="3"/><rect x="66" y="30" width="24" height="16" rx="3"/></g><g fill="#aeb9c4"><rect x="15" y="15" width="14" height="6" rx="2"/><rect x="43" y="15" width="14" height="6" rx="2"/><rect x="71" y="15" width="14" height="6" rx="2"/><rect x="15" y="35" width="14" height="6" rx="2"/><rect x="43" y="35" width="14" height="6" rx="2"/><rect x="71" y="35" width="14" height="6" rx="2"/></g>
</svg>
